# xmcd
#
# Track frame offsets: 
#        150
#        19323
#        34172
#        44820
#        61563
#        81803
#        99210
#        116484
#        133326
#        142293
#        155830
#        173510
#        188784
#        198903
#        211653
#        228975
#        242189
#        257114
#        278522
#        296613
#        308589
#
# Disc length: 4344 seconds
#
# Revision: 0
# Processed by: cddbd v1.5.2PL0 Copyright (c) Steve Scherf et al.
# Submitted via: ExactAudioCopy v0.99pb3
#
DISCID=2b10f615
DTITLE=Various Artist - Bloodshot Records Sampler 6
DYEAR=2006
DGENRE=Alt. Rock
TTITLE0=Deadstring Brothers - Sacred Heart
TTITLE1=Bobby Bare Jr. - Bionic Heart
TTITLE2=Wayne Hancock - Shooting Star From Texas
TTITLE3=Paul Burch - John Peel
TTITLE4=Cordero - Heart In Me
TTITLE5=The Bottle Rockets - Middle Man
TTITLE6=Mark Pickerel and His Praying Hands - Come Home Blues
TTITLE7=Scott H. Biram - Been Down Too Long
TTITLE8=The Meat Purveyors - Liquor Store
TTITLE9=Wee Hairy Beasties - Wee Hairy Beasties
TTITLE10=The Silos - Behind Me Now
TTITLE11=Dan Zanes - Drunken Sailor
TTITLE12=Detroit Cobras - Hot Dog
TTITLE13=Ryan Adams - Shakedown on 9th Street
TTITLE14=Alejandro Escovedo - Rosalie
TTITLE15=Legendary Shack*Shakers - CB Song
TTITLE16=Split Lip Rayfield - Redneck Tailgate Dream
TTITLE17=Graham Parker and The Figgs - Bad Chardonnay
TTITLE18=Neko Case - Deep Red Bells
TTITLE19=Waco Brothers - Nothing At All
TTITLE20=Old 97's - Victoria
EXTD=
EXTT0=
EXTT1=
EXTT2=
EXTT3=
EXTT4=
EXTT5=
EXTT6=
EXTT7=
EXTT8=
EXTT9=
EXTT10=
EXTT11=
EXTT12=
EXTT13=
EXTT14=
EXTT15=
EXTT16=
EXTT17=
EXTT18=
EXTT19=
EXTT20=
PLAYORDER=
